<?xml version="1.0" encoding="UTF-8" standalone="no"?>
<svg
   viewBox="0 0 512.00001 518.38929"
   version="1.1"
   id="svg1"
   sodipodi:docname="image-solid.svg"
   width="512"
   height="518.38928"
   inkscape:version="1.3.2 (091e20e, 2023-11-25)"
   xmlns:inkscape="http://www.inkscape.org/namespaces/inkscape"
   xmlns:sodipodi="http://sodipodi.sourceforge.net/DTD/sodipodi-0.dtd"
   xmlns="http://www.w3.org/2000/svg"
   xmlns:svg="http://www.w3.org/2000/svg">
  <defs
     id="defs1">
    <rect
       x="428.10413"
       y="14.093963"
       width="143.27853"
       height="191.22821"
       id="rect3" />
  </defs>
  <sodipodi:namedview
     id="namedview1"
     pagecolor="#ffffff"
     bordercolor="#000000"
     borderopacity="0.25"
     inkscape:showpageshadow="2"
     inkscape:pageopacity="0.0"
     inkscape:pagecheckerboard="0"
     inkscape:deskcolor="#d1d1d1"
     inkscape:zoom="0.5"
     inkscape:cx="258"
     inkscape:cy="72"
     inkscape:window-width="1472"
     inkscape:window-height="965"
     inkscape:window-x="0"
     inkscape:window-y="25"
     inkscape:window-maximized="0"
     inkscape:current-layer="svg1" />
  <!--!Font Awesome Free 6.5.1 by @fontawesome - https://fontawesome.com License - https://fontawesome.com/license/free Copyright 2024 Fonticons, Inc.-->
  <path
     d="M 0,64 C 0,28.7 28.7,0 63.999996,0 H 448 c 35.3,0 64,28.7 64,64 v 320 c 0,35.3 -28.7,64 -64,64 H 63.999996 C 28.7,448 0,419.3 0,384 Z M 323.8,170.5 C 319.3,163.9 311.9,160 304,160 c -7.9,0 -15.4,3.9 -19.8,10.5 l -87,127.6 -26.5,-33.1 c -4.6,-5.7 -11.5,-9 -18.7,-9 -7.2,0 -14.2,3.3 -18.7,9 l -64.000004,80 c -5.8,7.2 -6.9,17.1 -2.9,25.4 4,8.3 12.4,13.6 21.6,13.6 H 184 216 424 c 8.9,0 17.1,-4.9 21.2,-12.8 4.1,-7.9 3.6,-17.4 -1.4,-24.7 z M 112,160 a 48,48 0 1 0 0,-96 48,48 0 1 0 0,96 z"
     id="path1"
     style="fill:#ffffff;fill-opacity:1" />
  <circle
     style="fill:#d58300;fill-opacity:1;stroke:#d58300;stroke-width:35;stroke-dasharray:none;stroke-opacity:1"
     id="path2"
     cx="253.81555"
     cy="396.94629"
     r="103.94298" />
  <text
     xml:space="preserve"
     id="text3"
     style="font-style:normal;font-variant:normal;font-weight:normal;font-stretch:normal;font-size:146.667px;font-family:sans-serif;-inkscape-font-specification:'sans-serif, Normal';font-variant-ligatures:normal;font-variant-caps:normal;font-variant-numeric:normal;font-variant-east-asian:normal;white-space:pre;shape-inside:url(#rect3);display:inline;fill:#000000;fill-opacity:1;stroke:#000000;stroke-width:16;stroke-dasharray:none;stroke-opacity:1"
     transform="translate(-220,300)"><tspan
       x="428.10352"
       y="147.90251"
       id="tspan1">2</tspan></text>
</svg>
